  0
SECTION
  2
HEADER
  9
$ACADVER
  1
AC1009
  9
$EXTMIN
 10
0.0
 20
0.0
 30
0.0
  9
$EXTMAX
 10
1000.0
 20
1000.0
 30
0.0
  9
$FILLMODE
 70
 0
  9
$SPLFRAME
 70
 1
  0
ENDSEC
  0
SECTION
  2
TABLES
  0
TABLE
  2
LAYER
 70
1
  0
LAYER
  2
0
 70
     0
 62
     7
  6
CONTINUOUS
  0
ENDTAB
  0
ENDSEC
  0
SECTION
  2
ENTITIES
  0
POLYLINE
  8
0
 62
     140
 66
     1
 10
0
 20
0
 30
0.0
 70
     1
 40
0
 41
0
  0
VERTEX
  8
0
 10
0.944879
 20
1.14686
 30
0.0
 40
0
 41
0
  0
VERTEX
  8
0
 10
1.20307
 20
0.726779
 30
0.0
 40
0
 41
0
  0
VERTEX
  8
0
 10
0.944879
 20
0.716797
 30
0.0
 40
0
 41
0
  0
VERTEX
  8
0
 10
0.944879
 20
1.14686
 30
0.0
 40
0
 41
0
  0
SEQEND
 8
0
  0
POLYLINE
  8
0
 62
     140
 66
     1
 10
0
 20
0
 30
0.0
 70
     1
 40
0
 41
0
  0
VERTEX
  8
0
 10
0.933919
 20
1.09321
 30
0.0
 40
0
 41
0
  0
VERTEX
  8
0
 10
0.933051
 20
0.702257
 30
0.0
 40
0
 41
0
  0
VERTEX
  8
0
 10
0.761176
 20
0.707682
 30
0.0
 40
0
 41
0
  0
VERTEX
  8
0
 10
0.933919
 20
1.09321
 30
0.0
 40
0
 41
0
  0
SEQEND
 8
0
  0
POLYLINE
  8
0
 62
     140
 66
     1
 10
0
 20
0
 30
0.0
 70
     1
 40
0
 41
0
  0
VERTEX
  8
0
 10
0.741157
 20
0.694988
 30
0.0
 40
0
 41
0
  0
VERTEX
  8
0
 10
1.20578
 20
0.694065
 30
0.0
 40
0
 41
0
  0
VERTEX
  8
0
 10
1.20589
 20
0.69336
 30
0.0
 40
0
 41
0
  0
VERTEX
  8
0
 10
1.20557
 20
0.687121
 30
0.0
 40
0
 41
0
  0
VERTEX
  8
0
 10
1.20432
 20
0.674696
 30
0.0
 40
0
 41
0
  0
VERTEX
  8
0
 10
1.20199
 20
0.663086
 30
0.0
 40
0
 41
0
  0
VERTEX
  8
0
 10
1.199
 20
0.658475
 30
0.0
 40
0
 41
0
  0
VERTEX
  8
0
 10
1.19851
 20
0.658583
 30
0.0
 40
0
 41
0
  0
VERTEX
  8
0
 10
1.19792
 20
0.657226
 30
0.0
 40
0
 41
0
  0
VERTEX
  8
0
 10
1.19092
 20
0.655111
 30
0.0
 40
0
 41
0
  0
VERTEX
  8
0
 10
1.17323
 20
0.651531
 30
0.0
 40
0
 41
0
  0
VERTEX
  8
0
 10
1.14887
 20
0.648004
 30
0.0
 40
0
 41
0
  0
VERTEX
  8
0
 10
1.1212
 20
0.644749
 30
0.0
 40
0
 41
0
  0
VERTEX
  8
0
 10
1.09375
 20
0.641928
 30
0.0
 40
0
 41
0
  0
VERTEX
  8
0
 10
1.06988
 20
0.639703
 30
0.0
 40
0
 41
0
  0
VERTEX
  8
0
 10
1.05306
 20
0.638237
 30
0.0
 40
0
 41
0
  0
VERTEX
  8
0
 10
1.04671
 20
0.637696
 30
0.0
 40
0
 41
0
  0
VERTEX
  8
0
 10
1.04671
 20
0.637696
 30
0.0
 40
0
 41
0
  0
VERTEX
  8
0
 10
1.02485
 20
0.522244
 30
0.0
 40
0
 41
0
  0
VERTEX
  8
0
 10
1.02485
 20
0.522244
 30
0.0
 40
0
 41
0
  0
VERTEX
  8
0
 10
1.02306
 20
0.523383
 30
0.0
 40
0
 41
0
  0
VERTEX
  8
0
 10
1.01487
 20
0.523762
 30
0.0
 40
0
 41
0
  0
VERTEX
  8
0
 10
1.00201
 20
0.524957
 30
0.0
 40
0
 41
0
  0
VERTEX
  8
0
 10
0.986219
 20
0.528483
 30
0.0
 40
0
 41
0
  0
VERTEX
  8
0
 10
0.969239
 20
0.535807
 30
0.0
 40
0
 41
0
  0
VERTEX
  8
0
 10
0.9528
 20
0.548449
 30
0.0
 40
0
 41
0
  0
VERTEX
  8
0
 10
0.938639
 20
0.567979
 30
0.0
 40
0
 41
0
  0
VERTEX
  8
0
 10
0.930122
 20
0.588704
 30
0.0
 40
0
 41
0
  0
VERTEX
  8
0
 10
0.928494
 20
0.595865
 30
0.0
 40
0
 41
0
  0
VERTEX
  8
0
 10
0.927354
 20
0.600803
 30
0.0
 40
0
 41
0
  0
VERTEX
  8
0
 10
0.918782
 20
0.614367
 30
0.0
 40
0
 41
0
  0
VERTEX
  8
0
 10
0.901421
 20
0.627171
 30
0.0
 40
0
 41
0
  0
VERTEX
  8
0
 10
0.878689
 20
0.635688
 30
0.0
 40
0
 41
0
  0
VERTEX
  8
0
 10
0.852919
 20
0.641276
 30
0.0
 40
0
 41
0
  0
VERTEX
  8
0
 10
0.826551
 20
0.645182
 30
0.0
 40
0
 41
0
  0
VERTEX
  8
0
 10
0.801758
 20
0.648817
 30
0.0
 40
0
 41
0
  0
VERTEX
  8
0
 10
0.781033
 20
0.653429
 30
0.0
 40
0
 41
0
  0
VERTEX
  8
0
 10
0.76964
 20
0.657986
 30
0.0
 40
0
 41
0
  0
VERTEX
  8
0
 10
0.766656
 20
0.660428
 30
0.0
 40
0
 41
0
  0
VERTEX
  8
0
 10
0.762424
 20
0.6639
 30
0.0
 40
0
 41
0
  0
VERTEX
  8
0
 10
0.750868
 20
0.675564
 30
0.0
 40
0
 41
0
  0
VERTEX
  8
0
 10
0.743435
 20
0.686361
 30
0.0
 40
0
 41
0
  0
VERTEX
  8
0
 10
0.741211
 20
0.692871
 30
0.0
 40
0
 41
0
  0
VERTEX
  8
0
 10
0.741157
 20
0.694988
 30
0.0
 40
0
 41
0
  0
VERTEX
  8
0
 10
0.741157
 20
0.694988
 30
0.0
 40
0
 41
0
  0
SEQEND
 8
0
  0
POLYLINE
  8
0
 62
     7
 66
     1
 10
0
 20
0
 30
0.0
 70
     1
 40
0
 41
0
  0
VERTEX
  8
0
 10
0.550401
 20
0.707954
 30
0.0
 40
0
 41
0
  0
VERTEX
  8
0
 10
0.560764
 20
0.707954
 30
0.0
 40
0
 41
0
  0
VERTEX
  8
0
 10
0.589247
 20
0.712022
 30
0.0
 40
0
 41
0
  0
VERTEX
  8
0
 10
0.592014
 20
0.712836
 30
0.0
 40
0
 41
0
  0
VERTEX
  8
0
 10
0.594835
 20
0.713813
 30
0.0
 40
0
 41
0
  0
VERTEX
  8
0
 10
0.617296
 20
0.726074
 30
0.0
 40
0
 41
0
  0
VERTEX
  8
0
 10
0.618924
 20
0.727539
 30
0.0
 40
0
 41
0
  0
VERTEX
  8
0
 10
0.620551
 20
0.729167
 30
0.0
 40
0
 41
0
  0
VERTEX
  8
0
 10
0.631456
 20
0.746853
 30
0.0
 40
0
 41
0
  0
VERTEX
  8
0
 10
0.631999
 20
0.748753
 30
0.0
 40
0
 41
0
  0
VERTEX
  8
0
 10
0.63265
 20
0.750814
 30
0.0
 40
0
 41
0
  0
VERTEX
  8
0
 10
0.636068
 20
0.767632
 30
0.0
 40
0
 41
0
  0
VERTEX
  8
0
 10
0.636068
 20
0.773221
 30
0.0
 40
0
 41
0
  0
VERTEX
  8
0
 10
0.636068
 20
0.780165
 30
0.0
 40
0
 41
0
  0
VERTEX
  8
0
 10
0.628581
 20
0.79899
 30
0.0
 40
0
 41
0
  0
VERTEX
  8
0
 10
0.627115
 20
0.800999
 30
0.0
 40
0
 41
0
  0
VERTEX
  8
0
 10
0.625597
 20
0.80306
 30
0.0
 40
0
 41
0
  0
VERTEX
  8
0
 10
0.606554
 20
0.820747
 30
0.0
 40
0
 41
0
  0
VERTEX
  8
0
 10
0.604275
 20
0.822211
 30
0.0
 40
0
 41
0
  0
VERTEX
  8
0
 10
0.601942
 20
0.823839
 30
0.0
 40
0
 41
0
  0
VERTEX
  8
0
 10
0.576064
 20
0.838162
 30
0.0
 40
0
 41
0
  0
VERTEX
  8
0
 10
0.573242
 20
0.839356
 30
0.0
 40
0
 41
0
  0
VERTEX
  8
0
 10
0.570367
 20
0.840713
 30
0.0
 40
0
 41
0
  0
VERTEX
  8
0
 10
0.541775
 20
0.852919
 30
0.0
 40
0
 41
0
  0
VERTEX
  8
0
 10
0.538954
 20
0.854004
 30
0.0
 40
0
 41
0
  0
VERTEX
  8
0
 10
0.535101
 20
0.855414
 30
0.0
 40
0
 41
0
  0
VERTEX
  8
0
 10
0.495714
 20
0.871039
 30
0.0
 40
0
 41
0
  0
VERTEX
  8
0
 10
0.491644
 20
0.872775
 30
0.0
 40
0
 41
0
  0
VERTEX
  8
0
 10
0.487522
 20
0.874567
 30
0.0
 40
0
 41
0
  0
VERTEX
  8
0
 10
0.450087
 20
0.897026
 30
0.0
 40
0
 41
0
  0
VERTEX
  8
0
 10
0.446724
 20
0.89974
 30
0.0
 40
0
 41
0
  0
VERTEX
  8
0
 10
0.443468
 20
0.902453
 30
0.0
 40
0
 41
0
  0
VERTEX
  8
0
 10
0.416288
 20
0.935818
 30
0.0
 40
0
 41
0
  0
VERTEX
  8
0
 10
0.414117
 20
0.939725
 30
0.0
 40
0
 41
0
  0
VERTEX
  8
0
 10
0.411893
 20
0.943847
 30
0.0
 40
0
 41
0
  0
VERTEX
  8
0
 10
0.401042
 20
0.986057
 30
0.0
 40
0
 41
0
  0
VERTEX
  8
0
 10
0.401042
 20
1.00011
 30
0.0
 40
0
 41
0
  0
VERTEX
  8
0
 10
0.401042
 20
1.01595
 30
0.0
 40
0
 41
0
  0
VERTEX
  8
0
 10
0.412435
 20
1.06337
 30
0.0
 40
0
 41
0
  0
VERTEX
  8
0
 10
0.439074
 20
1.10444
 30
0.0
 40
0
 41
0
  0
VERTEX
  8
0
 10
0.446724
 20
1.11111
 30
0.0
 40
0
 41
0
  0
VERTEX
  8
0
 10
0.454482
 20
1.11778
 30
0.0
 40
0
 41
0
  0
VERTEX
  8
0
 10
0.50179
 20
1.14111
 30
0.0
 40
0
 41
0
  0
VERTEX
  8
0
 10
0.55599
 20
1.1511
 30
0.0
 40
0
 41
0
  0
VERTEX
  8
0
 10
0.574056
 20
1.1511
 30
0.0
 40
0
 41
0
  0
VERTEX
  8
0
 10
0.594239
 20
1.1511
 30
0.0
 40
0
 41
0
  0
VERTEX
  8
0
 10
0.649089
 20
1.14225
 30
0.0
 40
0
 41
0
  0
VERTEX
  8
0
 10
0.654839
 20
1.14046
 30
0.0
 40
0
 41
0
  0
VERTEX
  8
0
 10
0.660644
 20
1.13873
 30
0.0
 40
0
 41
0
  0
VERTEX
  8
0
 10
0.709636
 20
1.11898
 30
0.0
 40
0
 41
0
  0
VERTEX
  8
0
 10
0.713596
 20
1.11681
 30
0.0
 40
0
 41
0
  0
VERTEX
  8
0
 10
0.684244
 20
1.03928
 30
0.0
 40
0
 41
0
  0
VERTEX
  8
0
 10
0.680826
 20
1.04118
 30
0.0
 40
0
 41
0
  0
VERTEX
  8
0
 10
0.642686
 20
1.05751
 30
0.0
 40
0
 41
0
  0
VERTEX
  8
0
 10
0.63851
 20
1.05887
 30
0.0
 40
0
 41
0
  0
VERTEX
  8
0
 10
0.634386
 20
1.06022
 30
0.0
 40
0
 41
0
  0
VERTEX
  8
0
 10
0.594618
 20
1.067
 30
0.0
 40
0
 41
0
  0
VERTEX
  8
0
 10
0.581381
 20
1.067
 30
0.0
 40
0
 41
0
  0
VERTEX
  8
0
 10
0.572592
 20
1.067
 30
0.0
 40
0
 41
0
  0
VERTEX
  8
0
 10
0.546386
 20
1.06342
 30
0.0
 40
0
 41
0
  0
VERTEX
  8
0
 10
0.521376
 20
1.05252
 30
0.0
 40
0
 41
0
  0
VERTEX
  8
0
 10
0.506401
 20
1.03445
 30
0.0
 40
0
 41
0
  0
VERTEX
  8
0
 10
0.501411
 20
1.01541
 30
0.0
 40
0
 41
0
  0
VERTEX
  8
0
 10
0.501411
 20
1.00906
 30
0.0
 40
0
 41
0
  0
VERTEX
  8
0
 10
0.501411
 20
1.00255
 30
0.0
 40
0
 41
0
  0
VERTEX
  8
0
 10
0.508192
 20
0.984864
 30
0.0
 40
0
 41
0
  0
VERTEX
  8
0
 10
0.509603
 20
0.982964
 30
0.0
 40
0
 41
0
  0
VERTEX
  8
0
 10
0.51096
 20
0.981228
 30
0.0
 40
0
 41
0
  0
VERTEX
  8
0
 10
0.52794
 20
0.964899
 30
0.0
 40
0
 41
0
  0
VERTEX
  8
0
 10
0.530003
 20
0.963379
 30
0.0
 40
0
 41
0
  0
VERTEX
  8
0
 10
0.532172
 20
0.962022
 30
0.0
 40
0
 41
0
  0
VERTEX
  8
0
 10
0.555935
 20
0.949815
 30
0.0
 40
0
 41
0
  0
VERTEX
  8
0
 10
0.558539
 20
0.948676
 30
0.0
 40
0
 41
0
  0
VERTEX
  8
0
 10
0.561253
 20
0.947592
 30
0.0
 40
0
 41
0
  0
VERTEX
  8
0
 10
0.587782
 20
0.937446
 30
0.0
 40
0
 41
0
  0
VERTEX
  8
0
 10
0.590386
 20
0.936469
 30
0.0
 40
0
 41
0
  0
VERTEX
  8
0
 10
0.594293
 20
0.935004
 30
0.0
 40
0
 41
0
  0
VERTEX
  8
0
 10
0.635092
 20
0.917969
 30
0.0
 40
0
 41
0
  0
VERTEX
  8
0
 10
0.639324
 20
0.916069
 30
0.0
 40
0
 41
0
  0
VERTEX
  8
0
 10
0.643664
 20
0.914333
 30
0.0
 40
0
 41
0
  0
VERTEX
  8
0
 10
0.683106
 20
0.889811
 30
0.0
 40
0
 41
0
  0
VERTEX
  8
0
 10
0.686686
 20
0.886664
 30
0.0
 40
0
 41
0
  0
VERTEX
  8
0
 10
0.690321
 20
0.883681
 30
0.0
 40
0
 41
0
  0
VERTEX
  8
0
 10
0.720269
 20
0.845649
 30
0.0
 40
0
 41
0
  0
VERTEX
  8
0
 10
0.722601
 20
0.840983
 30
0.0
 40
0
 41
0
  0
VERTEX
  8
0
 10
0.724881
 20
0.836535
 30
0.0
 40
0
 41
0
  0
VERTEX
  8
0
 10
0.732964
 20
0.810385
 30
0.0
 40
0
 41
0
  0
VERTEX
  8
0
 10
0.736436
 20
0.781901
 30
0.0
 40
0
 41
0
  0
VERTEX
  8
0
 10
0.736436
 20
0.772407
 30
0.0
 40
0
 41
0
  0
VERTEX
  8
0
 10
0.736436
 20
0.756674
 30
0.0
 40
0
 41
0
  0
VERTEX
  8
0
 10
0.724772
 20
0.709418
 30
0.0
 40
0
 41
0
  0
VERTEX
  8
0
 10
0.697646
 20
0.668837
 30
0.0
 40
0
 41
0
  0
VERTEX
  8
0
 10
0.689942
 20
0.662272
 30
0.0
 40
0
 41
0
  0
VERTEX
  8
0
 10
0.682292
 20
0.655871
 30
0.0
 40
0
 41
0
  0
VERTEX
  8
0
 10
0.632161
 20
0.633518
 30
0.0
 40
0
 41
0
  0
VERTEX
  8
0
 10
0.570801
 20
0.623915
 30
0.0
 40
0
 41
0
  0
VERTEX
  8
0
 10
0.550401
 20
0.623915
 30
0.0
 40
0
 41
0
  0
VERTEX
  8
0
 10
0.536242
 20
0.623915
 30
0.0
 40
0
 41
0
  0
VERTEX
  8
0
 10
0.493869
 20
0.627171
 30
0.0
 40
0
 41
0
  0
VERTEX
  8
0
 10
0.456272
 20
0.634765
 30
0.0
 40
0
 41
0
  0
VERTEX
  8
0
 10
0.450032
 20
0.636936
 30
0.0
 40
0
 41
0
  0
VERTEX
  8
0
 10
0.443739
 20
0.639268
 30
0.0
 40
0
 41
0
  0
VERTEX
  8
0
 10
0.39681
 20
0.660374
 30
0.0
 40
0
 41
0
  0
VERTEX
  8
0
 10
0.393718
 20
0.662272
 30
0.0
 40
0
 41
0
  0
VERTEX
  8
0
 10
0.423068
 20
0.743869
 30
0.0
 40
0
 41
0
  0
VERTEX
  8
0
 10
0.426704
 20
0.741699
 30
0.0
 40
0
 41
0
  0
VERTEX
  8
0
 10
0.470269
 20
0.7213
 30
0.0
 40
0
 41
0
  0
VERTEX
  8
0
 10
0.475315
 20
0.719401
 30
0.0
 40
0
 41
0
  0
VERTEX
  8
0
 10
0.480469
 20
0.717503
 30
0.0
 40
0
 41
0
  0
VERTEX
  8
0
 10
0.532878
 20
0.707954
 30
0.0
 40
0
 41
0
  0
VERTEX
  8
0
 10
0.550401
 20
0.707954
 30
0.0
 40
0
 41
0
  0
SEQEND
 8
0
  0
POLYLINE
  8
0
 62
     7
 66
     1
 10
0
 20
0
 30
0.0
 70
     1
 40
0
 41
0
  0
VERTEX
  8
0
 10
1.22119
 20
0.634494
 30
0.0
 40
0
 41
0
  0
VERTEX
  8
0
 10
1.22119
 20
0.717719
 30
0.0
 40
0
 41
0
  0
VERTEX
  8
0
 10
1.33138
 20
0.717719
 30
0.0
 40
0
 41
0
  0
VERTEX
  8
0
 10
1.33138
 20
1.05642
 30
0.0
 40
0
 41
0
  0
VERTEX
  8
0
 10
1.22119
 20
1.05642
 30
0.0
 40
0
 41
0
  0
VERTEX
  8
0
 10
1.22119
 20
1.13965
 30
0.0
 40
0
 41
0
  0
VERTEX
  8
0
 10
1.54194
 20
1.13965
 30
0.0
 40
0
 41
0
  0
VERTEX
  8
0
 10
1.54194
 20
1.05642
 30
0.0
 40
0
 41
0
  0
VERTEX
  8
0
 10
1.43257
 20
1.05642
 30
0.0
 40
0
 41
0
  0
VERTEX
  8
0
 10
1.43257
 20
0.717719
 30
0.0
 40
0
 41
0
  0
VERTEX
  8
0
 10
1.54194
 20
0.717719
 30
0.0
 40
0
 41
0
  0
VERTEX
  8
0
 10
1.54194
 20
0.634494
 30
0.0
 40
0
 41
0
  0
VERTEX
  8
0
 10
1.22119
 20
0.634494
 30
0.0
 40
0
 41
0
  0
SEQEND
 8
0
  0
POLYLINE
  8
0
 62
     7
 66
     1
 10
0
 20
0
 30
0.0
 70
     1
 40
0
 41
0
  0
VERTEX
  8
0
 10
1.96056
 20
0.634494
 30
0.0
 40
0
 41
0
  0
VERTEX
  8
0
 10
1.64313
 20
0.634494
 30
0.0
 40
0
 41
0
  0
VERTEX
  8
0
 10
1.64313
 20
1.13965
 30
0.0
 40
0
 41
0
  0
VERTEX
  8
0
 10
1.74431
 20
1.13965
 30
0.0
 40
0
 41
0
  0
VERTEX
  8
0
 10
1.74431
 20
0.717719
 30
0.0
 40
0
 41
0
  0
VERTEX
  8
0
 10
1.96056
 20
0.717719
 30
0.0
 40
0
 41
0
  0
VERTEX
  8
0
 10
1.96056
 20
0.634494
 30
0.0
 40
0
 41
0
  0
SEQEND
 8
0
  0
POLYLINE
  8
0
 62
     7
 66
     1
 10
0
 20
0
 30
0.0
 70
     1
 40
0
 41
0
  0
VERTEX
  8
0
 10
2.37592
 20
0.78711
 30
0.0
 40
0
 41
0
  0
VERTEX
  8
0
 10
2.37592
 20
0.776639
 30
0.0
 40
0
 41
0
  0
VERTEX
  8
0
 10
2.37201
 20
0.745117
 30
0.0
 40
0
 41
0
  0
VERTEX
  8
0
 10
2.36301
 20
0.715603
 30
0.0
 40
0
 41
0
  0
VERTEX
  8
0
 10
2.36046
 20
0.710394
 30
0.0
 40
0
 41
0
  0
VERTEX
  8
0
 10
2.35786
 20
0.705404
 30
0.0
 40
0
 41
0
  0
VERTEX
  8
0
 10
2.32243
 20
0.664606
 30
0.0
 40
0
 41
0
  0
VERTEX
  8
0
 10
2.31799
 20
0.661458
 30
0.0
 40
0
 41
0
  0
VERTEX
  8
0
 10
2.31364
 20
0.658475
 30
0.0
 40
0
 41
0
  0
VERTEX
  8
0
 10
2.26129
 20
0.636664
 30
0.0
 40
0
 41
0
  0
VERTEX
  8
0
 10
2.25515
 20
0.635308
 30
0.0
 40
0
 41
0
  0
VERTEX
  8
0
 10
2.24914
 20
0.634115
 30
0.0
 40
0
 41
0
  0
VERTEX
  8
0
 10
2.19547
 20
0.627983
 30
0.0
 40
0
 41
0
  0
VERTEX
  8
0
 10
2.17763
 20
0.627983
 30
0.0
 40
0
 41
0
  0
VERTEX
  8
0
 10
2.16026
 20
0.627983
 30
0.0
 40
0
 41
0
  0
VERTEX
  8
0
 10
2.11426
 20
0.631401
 30
0.0
 40
0
 41
0
  0
VERTEX
  8
0
 10
2.10829
 20
0.632053
 30
0.0
 40
0
 41
0
  0
VERTEX
  8
0
 10
2.10226
 20
0.632596
 30
0.0
 40
0
 41
0
  0
VERTEX
  8
0
 10
2.04308
 20
0.641493
 30
0.0
 40
0
 41
0
  0
VERTEX
  8
0
 10
2.03728
 20
0.642686
 30
0.0
 40
0
 41
0
  0
VERTEX
  8
0
 10
2.03728
 20
1.13314
 30
0.0
 40
0
 41
0
  0
VERTEX
  8
0
 10
2.04199
 20
1.13395
 30
0.0
 40
0
 41
0
  0
VERTEX
  8
0
 10
2.09435
 20
1.14073
 30
0.0
 40
0
 41
0
  0
VERTEX
  8
0
 10
2.1001
 20
1.14128
 30
0.0
 40
0
 41
0
  0
VERTEX
  8
0
 10
2.10579
 20
1.14198
 30
0.0
 40
0
 41
0
  0
VERTEX
  8
0
 10
2.15235
 20
1.14534
 30
0.0
 40
0
 41
0
  0
VERTEX
  8
0
 10
2.16786
 20
1.14534
 30
0.0
 40
0
 41
0
  0
VERTEX
  8
0
 10
2.18078
 20
1.14534
 30
0.0
 40
0
 41
0
  0
VERTEX
  8
0
 10
2.21967
 20
1.14231
 30
0.0
 40
0
 41
0
  0
VERTEX
  8
0
 10
2.25489
 20
1.1352
 30
0.0
 40
0
 41
0
  0
VERTEX
  8
0
 10
2.2609
 20
1.13314
 30
0.0
 40
0
 41
0
  0
VERTEX
  8
0
 10
2.26687
 20
1.13124
 30
0.0
 40
0
 41
0
  0
VERTEX
  8
0
 10
2.31375
 20
1.10541
 30
0.0
 40
0
 41
0
  0
VERTEX
  8
0
 10
2.31717
 20
1.10211
 30
0.0
 40
0
 41
0
  0
VERTEX
  8
0
 10
2.32053
 20
1.09901
 30
0.0
 40
0
 41
0
  0
VERTEX
  8
0
 10
2.34369
 20
1.06364
 30
0.0
 40
0
 41
0
  0
VERTEX
  8
0
 10
2.34494
 20
1.05968
 30
0.0
 40
0
 41
0
  0
VERTEX
  8
0
 10
2.34614
 20
1.05577
 30
0.0
 40
0
 41
0
  0
VERTEX
  8
0
 10
2.35226
 20
1.02322
 30
0.0
 40
0
 41
0
  0
VERTEX
  8
0
 10
2.35226
 20
1.01237
 30
0.0
 40
0
 41
0
  0
VERTEX
  8
0
 10
2.35226
 20
0.996474
 30
0.0
 40
0
 41
0
  0
VERTEX
  8
0
 10
2.33729
 20
0.953342
 30
0.0
 40
0
 41
0
  0
VERTEX
  8
0
 10
2.33431
 20
0.948676
 30
0.0
 40
0
 41
0
  0
VERTEX
  8
0
 10
2.33143
 20
0.944065
 30
0.0
 40
0
 41
0
  0
VERTEX
  8
0
 10
2.29269
 20
0.907389
 30
0.0
 40
0
 41
0
  0
VERTEX
  8
0
 10
2.28782
 20
0.904622
 30
0.0
 40
0
 41
0
  0
VERTEX
  8
0
 10
2.29639
 20
0.901531
 30
0.0
 40
0
 41
0
  0
VERTEX
  8
0
 10
2.33083
 20
0.882596
 30
0.0
 40
0
 41
0
  0
VERTEX
  8
0
 10
2.35417
 20
0.859321
 30
0.0
 40
0
 41
0
  0
VERTEX
  8
0
 10
2.35715
 20
0.854004
 30
0.0
 40
0
 41
0
  0
VERTEX
  8
0
 10
2.36025
 20
0.848742
 30
0.0
 40
0
 41
0
  0
VERTEX
  8
0
 10
2.37592
 20
0.802518
 30
0.0
 40
0
 41
0
  0
VERTEX
  8
0
 10
2.37592
 20
0.78711
 30
0.0
 40
0
 41
0
  0
SEQEND
 8
0
  0
POLYLINE
  8
0
 62
     7
 66
     1
 10
0
 20
0
 30
0.0
 70
     1
 40
0
 41
0
  0
VERTEX
  8
0
 10
2.13764
 20
0.855686
 30
0.0
 40
0
 41
0
  0
VERTEX
  8
0
 10
2.13764
 20
0.718533
 30
0.0
 40
0
 41
0
  0
VERTEX
  8
0
 10
2.13938
 20
0.718261
 30
0.0
 40
0
 41
0
  0
VERTEX
  8
0
 10
2.15842
 20
0.716254
 30
0.0
 40
0
 41
0
  0
VERTEX
  8
0
 10
2.16049
 20
0.716092
 30
0.0
 40
0
 41
0
  0
VERTEX
  8
0
 10
2.16265
 20
0.715983
 30
0.0
 40
0
 41
0
  0
VERTEX
  8
0
 10
2.18001
 20
0.715278
 30
0.0
 40
0
 41
0
  0
VERTEX
  8
0
 10
2.18582
 20
0.715278
 30
0.0
 40
0
 41
0
  0
VERTEX
  8
0
 10
2.19417
 20
0.715278
 30
0.0
 40
0
 41
0
  0
VERTEX
  8
0
 10
2.21653
 20
0.717339
 30
0.0
 40
0
 41
0
  0
VERTEX
  8
0
 10
2.21924
 20
0.717719
 30
0.0
 40
0
 41
0
  0
VERTEX
  8
0
 10
2.22194
 20
0.718317
 30
0.0
 40
0
 41
0
  0
VERTEX
  8
0
 10
2.24576
 20
0.72716
 30
0.0
 40
0
 41
0
  0
VERTEX
  8
0
 10
2.24783
 20
0.728353
 30
0.0
 40
0
 41
0
  0
VERTEX
  8
0
 10
2.25
 20
0.72971
 30
0.0
 40
0
 41
0
  0
VERTEX
  8
0
 10
2.26768
 20
0.748101
 30
0.0
 40
0
 41
0
  0
VERTEX
  8
0
 10
2.26904
 20
0.750379
 30
0.0
 40
0
 41
0
  0
VERTEX
  8
0
 10
2.2704
 20
0.752875
 30
0.0
 40
0
 41
0
  0
VERTEX
  8
0
 10
2.27718
 20
0.778592
 30
0.0
 40
0
 41
0
  0
VERTEX
  8
0
 10
2.27718
 20
0.78711
 30
0.0
 40
0
 41
0
  0
VERTEX
  8
0
 10
2.27718
 20
0.794976
 30
0.0
 40
0
 41
0
  0
VERTEX
  8
0
 10
2.27126
 20
0.818522
 30
0.0
 40
0
 41
0
  0
VERTEX
  8
0
 10
2.25743
 20
0.836806
 30
0.0
 40
0
 41
0
  0
VERTEX
  8
0
 10
2.25353
 20
0.839356
 30
0.0
 40
0
 41
0
  0
VERTEX
  8
0
 10
2.24968
 20
0.842068
 30
0.0
 40
0
 41
0
  0
VERTEX
  8
0
 10
2.22657
 20
0.851617
 30
0.0
 40
0
 41
0
  0
VERTEX
  8
0
 10
2.20025
 20
0.855686
 30
0.0
 40
0
 41
0
  0
VERTEX
  8
0
 10
2.19151
 20
0.855686
 30
0.0
 40
0
 41
0
  0
VERTEX
  8
0
 10
2.13764
 20
0.855686
 30
0.0
 40
0
 41
0
  0
SEQEND
 8
0
  0
POLYLINE
  8
0
 62
     7
 66
     1
 10
0
 20
0
 30
0.0
 70
     1
 40
0
 41
0
  0
VERTEX
  8
0
 10
2.17681
 20
0.938911
 30
0.0
 40
0
 41
0
  0
VERTEX
  8
0
 10
2.18522
 20
0.938911
 30
0.0
 40
0
 41
0
  0
VERTEX
  8
0
 10
2.2105
 20
0.943033
 30
0.0
 40
0
 41
0
  0
VERTEX
  8
0
 10
2.2315
 20
0.952528
 30
0.0
 40
0
 41
0
  0
VERTEX
  8
0
 10
2.23475
 20
0.95524
 30
0.0
 40
0
 41
0
  0
VERTEX
  8
0
 10
2.23801
 20
0.958117
 30
0.0
 40
0
 41
0
  0
VERTEX
  8
0
 10
2.2494
 20
0.975424
 30
0.0
 40
0
 41
0
  0
VERTEX
  8
0
 10
2.25435
 20
0.995171
 30
0.0
 40
0
 41
0
  0
VERTEX
  8
0
 10
2.25435
 20
1.00174
 30
0.0
 40
0
 41
0
  0
VERTEX
  8
0
 10
2.25435
 20
1.0089
 30
0.0
 40
0
 41
0
  0
VERTEX
  8
0
 10
2.24957
 20
1.02854
 30
0.0
 40
0
 41
0
  0
VERTEX
  8
0
 10
2.24864
 20
1.03027
 30
0.0
 40
0
 41
0
  0
VERTEX
  8
0
 10
2.24767
 20
1.03223
 30
0.0
 40
0
 41
0
  0
VERTEX
  8
0
 10
2.23475
 20
1.0465
 30
0.0
 40
0
 41
0
  0
VERTEX
  8
0
 10
2.23313
 20
1.04742
 30
0.0
 40
0
 41
0
  0
VERTEX
  8
0
 10
2.2315
 20
1.04856
 30
0.0
 40
0
 41
0
  0
VERTEX
  8
0
 10
2.21246
 20
1.05534
 30
0.0
 40
0
 41
0
  0
VERTEX
  8
0
 10
2.21029
 20
1.05561
 30
0.0
 40
0
 41
0
  0
VERTEX
  8
0
 10
2.20811
 20
1.05604
 30
0.0
 40
0
 41
0
  0
VERTEX
  8
0
 10
2.18956
 20
1.05805
 30
0.0
 40
0
 41
0
  0
VERTEX
  8
0
 10
2.18338
 20
1.05805
 30
0.0
 40
0
 41
0
  0
VERTEX
  8
0
 10
2.1774
 20
1.05805
 30
0.0
 40
0
 41
0
  0
VERTEX
  8
0
 10
2.16168
 20
1.0574
 30
0.0
 40
0
 41
0
  0
VERTEX
  8
0
 10
2.15967
 20
1.05724
 30
0.0
 40
0
 41
0
  0
VERTEX
  8
0
 10
2.15761
 20
1.05713
 30
0.0
 40
0
 41
0
  0
VERTEX
  8
0
 10
2.13926
 20
1.05507
 30
0.0
 40
0
 41
0
  0
VERTEX
  8
0
 10
2.13764
 20
1.0548
 30
0.0
 40
0
 41
0
  0
VERTEX
  8
0
 10
2.13764
 20
0.938911
 30
0.0
 40
0
 41
0
  0
VERTEX
  8
0
 10
2.17681
 20
0.938911
 30
0.0
 40
0
 41
0
  0
SEQEND
 8
0
  0
POLYLINE
  8
0
 62
     7
 66
     1
 10
0
 20
0
 30
0.0
 70
     1
 40
0
 41
0
  0
VERTEX
  8
0
 10
2.52528
 20
0.887478
 30
0.0
 40
0
 41
0
  0
VERTEX
  8
0
 10
2.52528
 20
0.870171
 30
0.0
 40
0
 41
0
  0
VERTEX
  8
0
 10
2.52729
 20
0.823622
 30
0.0
 40
0
 41
0
  0
VERTEX
  8
0
 10
2.52772
 20
0.818143
 30
0.0
 40
0
 41
0
  0
VERTEX
  8
0
 10
2.52826
 20
0.812879
 30
0.0
 40
0
 41
0
  0
VERTEX
  8
0
 10
2.53782
 20
0.766601
 30
0.0
 40
0
 41
0
  0
VERTEX
  8
0
 10
2.53917
 20
0.762642
 30
0.0
 40
0
 41
0
  0
VERTEX
  8
0
 10
2.54064
 20
0.758735
 30
0.0
 40
0
 41
0
  0
VERTEX
  8
0
 10
2.56104
 20
0.727431
 30
0.0
 40
0
 41
0
  0
VERTEX
  8
0
 10
2.56364
 20
0.725097
 30
0.0
 40
0
 41
0
  0
VERTEX
  8
0
 10
2.56619
 20
0.722819
 30
0.0
 40
0
 41
0
  0
VERTEX
  8
0
 10
2.59549
 20
0.711208
 30
0.0
 40
0
 41
0
  0
VERTEX
  8
0
 10
2.60525
 20
0.711208
 30
0.0
 40
0
 41
0
  0
VERTEX
  8
0
 10
2.61546
 20
0.711208
 30
0.0
 40
0
 41
0
  0
VERTEX
  8
0
 10
2.64344
 20
0.722819
 30
0.0
 40
0
 41
0
  0
VERTEX
  8
0
 10
2.64606
 20
0.725097
 30
0.0
 40
0
 41
0
  0
VERTEX
  8
0
 10
2.64876
 20
0.727431
 30
0.0
 40
0
 41
0
  0
VERTEX
  8
0
 10
2.66917
 20
0.758735
 30
0.0
 40
0
 41
0
  0
VERTEX
  8
0
 10
2.67057
 20
0.762642
 30
0.0
 40
0
 41
0
  0
VERTEX
  8
0
 10
2.67204
 20
0.766764
 30
0.0
 40
0
 41
0
  0
VERTEX
  8
0
 10
2.68153
 20
0.813693
 30
0.0
 40
0
 41
0
  0
VERTEX
  8
0
 10
2.68197
 20
0.818956
 30
0.0
 40
0
 41
0
  0
VERTEX
  8
0
 10
2.68251
 20
0.824274
 30
0.0
 40
0
 41
0
  0
VERTEX
  8
0
 10
2.68522
 20
0.87169
 30
0.0
 40
0
 41
0
  0
VERTEX
  8
0
 10
2.68522
 20
0.887478
 30
0.0
 40
0
 41
0
  0
VERTEX
  8
0
 10
2.68522
 20
0.904622
 30
0.0
 40
0
 41
0
  0
VERTEX
  8
0
 10
2.68251
 20
0.950792
 30
0.0
 40
0
 41
0
  0
VERTEX
  8
0
 10
2.68197
 20
0.956054
 30
0.0
 40
0
 41
0
  0
VERTEX
  8
0
 10
2.68153
 20
0.961535
 30
0.0
 40
0
 41
0
  0
VERTEX
  8
0
 10
2.67204
 20
1.00846
 30
0.0
 40
0
 41
0
  0
VERTEX
  8
0
 10
2.67057
 20
1.01237
 30
0.0
 40
0
 41
0
  0
VERTEX
  8
0
 10
2.66917
 20
1.01633
 30
0.0
 40
0
 41
0
  0
VERTEX
  8
0
 10
2.64942
 20
1.04758
 30
0.0
 40
0
 41
0
  0
VERTEX
  8
0
 10
2.64686
 20
1.04986
 30
0.0
 40
0
 41
0
  0
VERTEX
  8
0
 10
2.64426
 20
1.05219
 30
0.0
 40
0
 41
0
  0
VERTEX
  8
0
 10
2.61496
 20
1.06375
 30
0.0
 40
0
 41
0
  0
VERTEX
  8
0
 10
2.60525
 20
1.06375
 30
0.0
 40
0
 41
0
  0
VERTEX
  8
0
 10
2.59483
 20
1.06375
 30
0.0
 40
0
 41
0
  0
VERTEX
  8
0
 10
2.56619
 20
1.05219
 30
0.0
 40
0
 41
0
  0
VERTEX
  8
0
 10
2.56364
 20
1.04986
 30
0.0
 40
0
 41
0
  0
VERTEX
  8
0
 10
2.56104
 20
1.04758
 30
0.0
 40
0
 41
0
  0
VERTEX
  8
0
 10
2.54064
 20
1.01563
 30
0.0
 40
0
 41
0
  0
VERTEX
  8
0
 10
2.53917
 20
1.01156
 30
0.0
 40
0
 41
0
  0
VERTEX
  8
0
 10
2.53782
 20
1.00765
 30
0.0
 40
0
 41
0
  0
VERTEX
  8
0
 10
2.52826
 20
0.961372
 30
0.0
 40
0
 41
0
  0
VERTEX
  8
0
 10
2.52772
 20
0.956054
 30
0.0
 40
0
 41
0
  0
VERTEX
  8
0
 10
2.52729
 20
0.950792
 30
0.0
 40
0
 41
0
  0
VERTEX
  8
0
 10
2.52528
 20
0.903321
 30
0.0
 40
0
 41
0
  0
VERTEX
  8
0
 10
2.52528
 20
0.887478
 30
0.0
 40
0
 41
0
  0
SEQEND
 8
0
  0
POLYLINE
  8
0
 62
     7
 66
     1
 10
0
 20
0
 30
0.0
 70
     1
 40
0
 41
0
  0
VERTEX
  8
0
 10
2.42329
 20
0.887478
 30
0.0
 40
0
 41
0
  0
VERTEX
  8
0
 10
2.42329
 20
0.902832
 30
0.0
 40
0
 41
0
  0
VERTEX
  8
0
 10
2.42626
 20
0.948785
 30
0.0
 40
0
 41
0
  0
VERTEX
  8
0
 10
2.43528
 20
1.00195
 30
0.0
 40
0
 41
0
  0
VERTEX
  8
0
 10
2.45036
 20
1.04709
 30
0.0
 40
0
 41
0
  0
VERTEX
  8
0
 10
2.46517
 20
1.07563
 30
0.0
 40
0
 41
0
  0
VERTEX
  8
0
 10
2.4714
 20
1.08415
 30
0.0
 40
0
 41
0
  0
VERTEX
  8
0
 10
2.47944
 20
1.09532
 30
0.0
 40
0
 41
0
  0
VERTEX
  8
0
 10
2.52892
 20
1.13439
 30
0.0
 40
0
 41
0
  0
VERTEX
  8
0
 10
2.58615
 20
1.1511
 30
0.0
 40
0
 41
0
  0
VERTEX
  8
0
 10
2.60525
 20
1.1511
 30
0.0
 40
0
 41
0
  0
VERTEX
  8
0
 10
2.62483
 20
1.1511
 30
0.0
 40
0
 41
0
  0
VERTEX
  8
0
 10
2.6836
 20
1.13439
 30
0.0
 40
0
 41
0
  0
VERTEX
  8
0
 10
2.73296
 20
1.09532
 30
0.0
 40
0
 41
0
  0
VERTEX
  8
0
 10
2.74072
 20
1.08415
 30
0.0
 40
0
 41
0
  0
VERTEX
  8
0
 10
2.74675
 20
1.07557
 30
0.0
 40
0
 41
0
  0
VERTEX
  8
0
 10
2.76107
 20
1.04709
 30
0.0
 40
0
 41
0
  0
VERTEX
  8
0
 10
2.77561
 20
1.00195
 30
0.0
 40
0
 41
0
  0
VERTEX
  8
0
 10
2.78435
 20
0.948785
 30
0.0
 40
0
 41
0
  0
VERTEX
  8
0
 10
2.78728
 20
0.902832
 30
0.0
 40
0
 41
0
  0
VERTEX
  8
0
 10
2.78728
 20
0.887478
 30
0.0
 40
0
 41
0
  0
VERTEX
  8
0
 10
2.78728
 20
0.872179
 30
0.0
 40
0
 41
0
  0
VERTEX
  8
0
 10
2.78429
 20
0.826226
 30
0.0
 40
0
 41
0
  0
VERTEX
  8
0
 10
2.77539
 20
0.77284
 30
0.0
 40
0
 41
0
  0
VERTEX
  8
0
 10
2.76058
 20
0.727431
 30
0.0
 40
0
 41
0
  0
VERTEX
  8
0
 10
2.74604
 20
0.698676
 30
0.0
 40
0
 41
0
  0
VERTEX
  8
0
 10
2.7399
 20
0.689996
 30
0.0
 40
0
 41
0
  0
VERTEX
  8
0
 10
2.73199
 20
0.678982
 30
0.0
 40
0
 41
0
  0
VERTEX
  8
0
 10
2.68278
 20
0.640463
 30
0.0
 40
0
 41
0
  0
VERTEX
  8
0
 10
2.62522
 20
0.623915
 30
0.0
 40
0
 41
0
  0
VERTEX
  8
0
 10
2.60607
 20
0.623915
 30
0.0
 40
0
 41
0
  0
VERTEX
  8
0
 10
2.58643
 20
0.623915
 30
0.0
 40
0
 41
0
  0
VERTEX
  8
0
 10
2.5275
 20
0.640463
 30
0.0
 40
0
 41
0
  0
VERTEX
  8
0
 10
2.47765
 20
0.678982
 30
0.0
 40
0
 41
0
  0
VERTEX
  8
0
 10
2.46978
 20
0.689996
 30
0.0
 40
0
 41
0
  0
VERTEX
  8
0
 10
2.46203
 20
0.701172
 30
0.0
 40
0
 41
0
  0
VERTEX
  8
0
 10
2.4349
 20
0.77284
 30
0.0
 40
0
 41
0
  0
VERTEX
  8
0
 10
2.42329
 20
0.858832
 30
0.0
 40
0
 41
0
  0
VERTEX
  8
0
 10
2.42329
 20
0.887478
 30
0.0
 40
0
 41
0
  0
SEQEND
 8
0
  0
POLYLINE
  8
0
 62
     7
 66
     1
 10
0
 20
0
 30
0.0
 70
     1
 40
0
 41
0
  0
VERTEX
  8
0
 10
3.19694
 20
1.13965
 30
0.0
 40
0
 41
0
  0
VERTEX
  8
0
 10
3.19694
 20
1.05642
 30
0.0
 40
0
 41
0
  0
VERTEX
  8
0
 10
3.06392
 20
1.05642
 30
0.0
 40
0
 41
0
  0
VERTEX
  8
0
 10
3.06392
 20
0.634494
 30
0.0
 40
0
 41
0
  0
VERTEX
  8
0
 10
2.96272
 20
0.634494
 30
0.0
 40
0
 41
0
  0
VERTEX
  8
0
 10
2.96272
 20
1.05642
 30
0.0
 40
0
 41
0
  0
VERTEX
  8
0
 10
2.82969
 20
1.05642
 30
0.0
 40
0
 41
0
  0
VERTEX
  8
0
 10
2.82969
 20
1.13965
 30
0.0
 40
0
 41
0
  0
VERTEX
  8
0
 10
3.19694
 20
1.13965
 30
0.0
 40
0
 41
0
  0
SEQEND
 8
0
  0
POLYLINE
  8
0
 62
     7
 66
     1
 10
0
 20
0
 30
0.0
 70
     1
 40
0
 41
0
  0
VERTEX
  8
0
 10
0.833985
 20
1.23562
 30
0.0
 40
0
 41
0
  0
VERTEX
  8
0
 10
0.802029
 20
1.39328
 30
0.0
 40
0
 41
0
  0
VERTEX
  8
0
 10
0.620117
 20
1.39328
 30
0.0
 40
0
 41
0
  0
VERTEX
  8
0
 10
0.589247
 20
1.23562
 30
0.0
 40
0
 41
0
  0
VERTEX
  8
0
 10
0.448133
 20
1.23562
 30
0.0
 40
0
 41
0
  0
VERTEX
  8
0
 10
0.456218
 20
1.26926
 30
0.0
 40
0
 41
0
  0
VERTEX
  8
0
 10
0.537978
 20
1.57519
 30
0.0
 40
0
 41
0
  0
VERTEX
  8
0
 10
0.546278
 20
1.60275
 30
0.0
 40
0
 41
0
  0
VERTEX
  8
0
 10
0.554525
 20
1.63053
 30
0.0
 40
0
 41
0
  0
VERTEX
  8
0
 10
0.63444
 20
1.89324
 30
0.0
 40
0
 41
0
  0
VERTEX
  8
0
 10
0.642144
 20
1.91803
 30
0.0
 40
0
 41
0
  0
VERTEX
  8
0
 10
0.789876
 20
1.91803
 30
0.0
 40
0
 41
0
  0
VERTEX
  8
0
 10
0.79796
 20
1.89307
 30
0.0
 40
0
 41
0
  0
VERTEX
  8
0
 10
0.877875
 20
1.62756
 30
0.0
 40
0
 41
0
  0
VERTEX
  8
0
 10
0.885796
 20
1.59944
 30
0.0
 40
0
 41
0
  0
VERTEX
  8
0
 10
0.893881
 20
1.57156
 30
0.0
 40
0
 41
0
  0
VERTEX
  8
0
 10
0.971951
 20
1.26834
 30
0.0
 40
0
 41
0
  0
VERTEX
  8
0
 10
0.979492
 20
1.23562
 30
0.0
 40
0
 41
0
  0
VERTEX
  8
0
 10
0.833985
 20
1.23562
 30
0.0
 40
0
 41
0
  0
SEQEND
 8
0
  0
POLYLINE
  8
0
 62
     7
 66
     1
 10
0
 20
0
 30
0.0
 70
     1
 40
0
 41
0
  0
VERTEX
  8
0
 10
0.712728
 20
1.78575
 30
0.0
 40
0
 41
0
  0
VERTEX
  8
0
 10
0.710883
 20
1.77935
 30
0.0
 40
0
 41
0
  0
VERTEX
  8
0
 10
0.693414
 20
1.71778
 30
0.0
 40
0
 41
0
  0
VERTEX
  8
0
 10
0.691786
 20
1.71186
 30
0.0
 40
0
 41
0
  0
VERTEX
  8
0
 10
0.690321
 20
1.70617
 30
0.0
 40
0
 41
0
  0
VERTEX
  8
0
 10
0.675618
 20
1.64919
 30
0.0
 40
0
 41
0
  0
VERTEX
  8
0
 10
0.674154
 20
1.6435
 30
0.0
 40
0
 41
0
  0
VERTEX
  8
0
 10
0.672851
 20
1.63803
 30
0.0
 40
0
 41
0
  0
VERTEX
  8
0
 10
0.659939
 20
1.58197
 30
0.0
 40
0
 41
0
  0
VERTEX
  8
0
 10
0.658692
 20
1.57628
 30
0.0
 40
0
 41
0
  0
VERTEX
  8
0
 10
0.657553
 20
1.57058
 30
0.0
 40
0
 41
0
  0
VERTEX
  8
0
 10
0.646539
 20
1.51178
 30
0.0
 40
0
 41
0
  0
VERTEX
  8
0
 10
0.645454
 20
1.50569
 30
0.0
 40
0
 41
0
  0
VERTEX
  8
0
 10
0.778862
 20
1.50569
 30
0.0
 40
0
 41
0
  0
VERTEX
  8
0
 10
0.777724
 20
1.51178
 30
0.0
 40
0
 41
0
  0
VERTEX
  8
0
 10
0.76671
 20
1.57058
 30
0.0
 40
0
 41
0
  0
VERTEX
  8
0
 10
0.765625
 20
1.57628
 30
0.0
 40
0
 41
0
  0
VERTEX
  8
0
 10
0.764486
 20
1.58197
 30
0.0
 40
0
 41
0
  0
VERTEX
  8
0
 10
0.751682
 20
1.63803
 30
0.0
 40
0
 41
0
  0
VERTEX
  8
0
 10
0.750217
 20
1.6435
 30
0.0
 40
0
 41
0
  0
VERTEX
  8
0
 10
0.748915
 20
1.64919
 30
0.0
 40
0
 41
0
  0
VERTEX
  8
0
 10
0.734213
 20
1.70617
 30
0.0
 40
0
 41
0
  0
VERTEX
  8
0
 10
0.732585
 20
1.71186
 30
0.0
 40
0
 41
0
  0
VERTEX
  8
0
 10
0.731065
 20
1.71778
 30
0.0
 40
0
 41
0
  0
VERTEX
  8
0
 10
0.714518
 20
1.77935
 30
0.0
 40
0
 41
0
  0
VERTEX
  8
0
 10
0.712728
 20
1.78575
 30
0.0
 40
0
 41
0
  0
SEQEND
 8
0
  0
POLYLINE
  8
0
 62
     7
 66
     1
 10
0
 20
0
 30
0.0
 70
     1
 40
0
 41
0
  0
VERTEX
  8
0
 10
1.66396
 20
1.44179
 30
0.0
 40
0
 41
0
  0
VERTEX
  8
0
 10
1.66396
 20
1.42763
 30
0.0
 40
0
 41
0
  0
VERTEX
  8
0
 10
1.65869
 20
1.38504
 30
0.0
 40
0
 41
0
  0
VERTEX
  8
0
 10
1.64649
 20
1.34516
 30
0.0
 40
0
 41
0
  0
VERTEX
  8
0
 10
1.64301
 20
1.33816
 30
0.0
 40
0
 41
0
  0
VERTEX
  8
0
 10
1.63949
 20
1.33138
 30
0.0
 40
0
 41
0
  0
VERTEX
  8
0
 10
1.61817
 20
1.30127
 30
0.0
 40
0
 41
0
  0
VERTEX
  8
0
 10
1.59169
 20
1.27626
 30
0.0
 40
0
 41
0
  0
VERTEX
  8
0
 10
1.58567
 20
1.27203
 30
0.0
 40
0
 41
0
  0
VERTEX
  8
0
 10
1.57975
 20
1.26801
 30
0.0
 40
0
 41
0
  0
VERTEX
  8
0
 10
1.50906
 20
1.23855
 30
0.0
 40
0
 41
0
  0
VERTEX
  8
0
 10
1.50082
 20
1.23671
 30
0.0
 40
0
 41
0
  0
VERTEX
  8
0
 10
1.49274
 20
1.23508
 30
0.0
 40
0
 41
0
  0
VERTEX
  8
0
 10
1.42019
 20
1.22683
 30
0.0
 40
0
 41
0
  0
VERTEX
  8
0
 10
1.39606
 20
1.22683
 30
0.0
 40
0
 41
0
  0
VERTEX
  8
0
 10
1.37261
 20
1.22683
 30
0.0
 40
0
 41
0
  0
VERTEX
  8
0
 10
1.31044
 20
1.23139
 30
0.0
 40
0
 41
0
  0
VERTEX
  8
0
 10
1.30235
 20
1.23231
 30
0.0
 40
0
 41
0
  0
VERTEX
  8
0
 10
1.29427
 20
1.23307
 30
0.0
 40
0
 41
0
  0
VERTEX
  8
0
 10
1.2143
 20
1.24501
 30
0.0
 40
0
 41
0
  0
VERTEX
  8
0
 10
1.20643
 20
1.24664
 30
0.0
 40
0
 41
0
  0
VERTEX
  8
0
 10
1.20643
 20
1.90924
 30
0.0
 40
0
 41
0
  0
VERTEX
  8
0
 10
1.21284
 20
1.91037
 30
0.0
 40
0
 41
0
  0
VERTEX
  8
0
 10
1.28358
 20
1.91954
 30
0.0
 40
0
 41
0
  0
VERTEX
  8
0
 10
1.29134
 20
1.92025
 30
0.0
 40
0
 41
0
  0
VERTEX
  8
0
 10
1.29905
 20
1.92117
 30
0.0
 40
0
 41
0
  0
VERTEX
  8
0
 10
1.36187
 20
1.92572
 30
0.0
 40
0
 41
0
  0
VERTEX
  8
0
 10
1.38281
 20
1.92572
 30
0.0
 40
0
 41
0
  0
VERTEX
  8
0
 10
1.40028
 20
1.92572
 30
0.0
 40
0
 41
0
  0
VERTEX
  8
0
 10
1.45281
 20
1.92165
 30
0.0
 40
0
 41
0
  0
VERTEX
  8
0
 10
1.50043
 20
1.912
 30
0.0
 40
0
 41
0
  0
VERTEX
  8
0
 10
1.50851
 20
1.90924
 30
0.0
 40
0
 41
0
  0
VERTEX
  8
0
 10
1.5166
 20
1.90668
 30
0.0
 40
0
 41
0
  0
VERTEX
  8
0
 10
1.55176
 20
1.89106
 30
0.0
 40
0
 41
0
  0
VERTEX
  8
0
 10
1.57997
 20
1.87175
 30
0.0
 40
0
 41
0
  0
VERTEX
  8
0
 10
1.58458
 20
1.86729
 30
0.0
 40
0
 41
0
  0
VERTEX
  8
0
 10
1.58914
 20
1.86313
 30
0.0
 40
0
 41
0
  0
VERTEX
  8
0
 10
1.62039
 20
1.81538
 30
0.0
 40
0
 41
0
  0
VERTEX
  8
0
 10
1.62207
 20
1.81
 30
0.0
 40
0
 41
0
  0
VERTEX
  8
0
 10
1.62369
 20
1.80469
 30
0.0
 40
0
 41
0
  0
VERTEX
  8
0
 10
1.632
 20
1.76074
 30
0.0
 40
0
 41
0
  0
VERTEX
  8
0
 10
1.632
 20
1.74604
 30
0.0
 40
0
 41
0
  0
VERTEX
  8
0
 10
1.632
 20
1.73465
 30
0.0
 40
0
 41
0
  0
VERTEX
  8
0
 10
1.62592
 20
1.70031
 30
0.0
 40
0
 41
0
  0
VERTEX
  8
0
 10
1.61176
 20
1.66635
 30
0.0
 40
0
 41
0
  0
VERTEX
  8
0
 10
1.60775
 20
1.66004
 30
0.0
 40
0
 41
0
  0
VERTEX
  8
0
 10
1.60385
 20
1.65381
 30
0.0
 40
0
 41
0
  0
VERTEX
  8
0
 10
1.5804
 20
1.62646
 30
0.0
 40
0
 41
0
  0
VERTEX
  8
0
 10
1.55149
 20
1.60422
 30
0.0
 40
0
 41
0
  0
VERTEX
  8
0
 10
1.54486
 20
1.60053
 30
0.0
 40
0
 41
0
  0
VERTEX
  8
0
 10
1.55643
 20
1.59631
 30
0.0
 40
0
 41
0
  0
VERTEX
  8
0
 10
1.60303
 20
1.57075
 30
0.0
 40
0
 41
0
  0
VERTEX
  8
0
 10
1.63456
 20
1.53933
 30
0.0
 40
0
 41
0
  0
VERTEX
  8
0
 10
1.63861
 20
1.53217
 30
0.0
 40
0
 41
0
  0
VERTEX
  8
0
 10
1.64279
 20
1.52501
 30
0.0
 40
0
 41
0
  0
VERTEX
  8
0
 10
1.65761
 20
1.48812
 30
0.0
 40
0
 41
0
  0
VERTEX
  8
0
 10
1.66396
 20
1.4534
 30
0.0
 40
0
 41
0
  0
VERTEX
  8
0
 10
1.66396
 20
1.44179
 30
0.0
 40
0
 41
0
  0
SEQEND
 8
0
  0
POLYLINE
  8
0
 62
     7
 66
     1
 10
0
 20
0
 30
0.0
 70
     1
 40
0
 41
0
  0
VERTEX
  8
0
 10
1.34207
 20
1.5344
 30
0.0
 40
0
 41
0
  0
VERTEX
  8
0
 10
1.34207
 20
1.34918
 30
0.0
 40
0
 41
0
  0
VERTEX
  8
0
 10
1.34446
 20
1.34885
 30
0.0
 40
0
 41
0
  0
VERTEX
  8
0
 10
1.37017
 20
1.34608
 30
0.0
 40
0
 41
0
  0
VERTEX
  8
0
 10
1.37294
 20
1.34587
 30
0.0
 40
0
 41
0
  0
VERTEX
  8
0
 10
1.37587
 20
1.3457
 30
0.0
 40
0
 41
0
  0
VERTEX
  8
0
 10
1.39931
 20
1.34478
 30
0.0
 40
0
 41
0
  0
VERTEX
  8
0
 10
1.40713
 20
1.34478
 30
0.0
 40
0
 41
0
  0
VERTEX
  8
0
 10
1.4184
 20
1.34478
 30
0.0
 40
0
 41
0
  0
VERTEX
  8
0
 10
1.44863
 20
1.34755
 30
0.0
 40
0
 41
0
  0
VERTEX
  8
0
 10
1.45231
 20
1.34809
 30
0.0
 40
0
 41
0
  0
VERTEX
  8
0
 10
1.45594
 20
1.34885
 30
0.0
 40
0
 41
0
  0
VERTEX
  8
0
 10
1.48812
 20
1.36079
 30
0.0
 40
0
 41
0
  0
VERTEX
  8
0
 10
1.49089
 20
1.36241
 30
0.0
 40
0
 41
0
  0
VERTEX
  8
0
 10
1.49382
 20
1.36426
 30
0.0
 40
0
 41
0
  0
VERTEX
  8
0
 10
1.51768
 20
1.38911
 30
0.0
 40
0
 41
0
  0
VERTEX
  8
0
 10
1.51953
 20
1.39219
 30
0.0
 40
0
 41
0
  0
VERTEX
  8
0
 10
1.52138
 20
1.39551
 30
0.0
 40
0
 41
0
  0
VERTEX
  8
0
 10
1.53054
 20
1.43024
 30
0.0
 40
0
 41
0
  0
VERTEX
  8
0
 10
1.53054
 20
1.44179
 30
0.0
 40
0
 41
0
  0
VERTEX
  8
0
 10
1.53054
 20
1.45242
 30
0.0
 40
0
 41
0
  0
VERTEX
  8
0
 10
1.52251
 20
1.48426
 30
0.0
 40
0
 41
0
  0
VERTEX
  8
0
 10
1.5039
 20
1.50885
 30
0.0
 40
0
 41
0
  0
VERTEX
  8
0
 10
1.49858
 20
1.51232
 30
0.0
 40
0
 41
0
  0
VERTEX
  8
0
 10
1.49343
 20
1.516
 30
0.0
 40
0
 41
0
  0
VERTEX
  8
0
 10
1.46218
 20
1.52892
 30
0.0
 40
0
 41
0
  0
VERTEX
  8
0
 10
1.42665
 20
1.5344
 30
0.0
 40
0
 41
0
  0
VERTEX
  8
0
 10
1.41482
 20
1.5344
 30
0.0
 40
0
 41
0
  0
VERTEX
  8
0
 10
1.34207
 20
1.5344
 30
0.0
 40
0
 41
0
  0
SEQEND
 8
0
  0
POLYLINE
  8
0
 62
     7
 66
     1
 10
0
 20
0
 30
0.0
 70
     1
 40
0
 41
0
  0
VERTEX
  8
0
 10
1.39497
 20
1.64681
 30
0.0
 40
0
 41
0
  0
VERTEX
  8
0
 10
1.40631
 20
1.64681
 30
0.0
 40
0
 41
0
  0
VERTEX
  8
0
 10
1.44043
 20
1.65235
 30
0.0
 40
0
 41
0
  0
VERTEX
  8
0
 10
1.46881
 20
1.66525
 30
0.0
 40
0
 41
0
  0
VERTEX
  8
0
 10
1.47325
 20
1.66889
 30
0.0
 40
0
 41
0
  0
VERTEX
  8
0
 10
1.47765
 20
1.67275
 30
0.0
 40
0
 41
0
  0
VERTEX
  8
0
 10
1.49306
 20
1.69618
 30
0.0
 40
0
 41
0
  0
VERTEX
  8
0
 10
1.49968
 20
1.72287
 30
0.0
 40
0
 41
0
  0
VERTEX
  8
0
 10
1.49968
 20
1.73172
 30
0.0
 40
0
 41
0
  0
VERTEX
  8
0
 10
1.49968
 20
1.74137
 30
0.0
 40
0
 41
0
  0
VERTEX
  8
0
 10
1.49322
 20
1.7679
 30
0.0
 40
0
 41
0
  0
VERTEX
  8
0
 10
1.49197
 20
1.77029
 30
0.0
 40
0
 41
0
  0
VERTEX
  8
0
 10
1.49067
 20
1.77289
 30
0.0
 40
0
 41
0
  0
VERTEX
  8
0
 10
1.47319
 20
1.79221
 30
0.0
 40
0
 41
0
  0
VERTEX
  8
0
 10
1.47103
 20
1.79346
 30
0.0
 40
0
 41
0
  0
VERTEX
  8
0
 10
1.46881
 20
1.79492
 30
0.0
 40
0
 41
0
  0
VERTEX
  8
0
 10
1.44308
 20
1.80414
 30
0.0
 40
0
 41
0
  0
VERTEX
  8
0
 10
1.44015
 20
1.80447
 30
0.0
 40
0
 41
0
  0
VERTEX
  8
0
 10
1.43718
 20
1.80507
 30
0.0
 40
0
 41
0
  0
VERTEX
  8
0
 10
1.41211
 20
1.80778
 30
0.0
 40
0
 41
0
  0
VERTEX
  8
0
 10
1.40381
 20
1.80778
 30
0.0
 40
0
 41
0
  0
VERTEX
  8
0
 10
1.39578
 20
1.80778
 30
0.0
 40
0
 41
0
  0
VERTEX
  8
0
 10
1.37451
 20
1.80692
 30
0.0
 40
0
 41
0
  0
VERTEX
  8
0
 10
1.3718
 20
1.80669
 30
0.0
 40
0
 41
0
  0
VERTEX
  8
0
 10
1.36903
 20
1.80653
 30
0.0
 40
0
 41
0
  0
VERTEX
  8
0
 10
1.34424
 20
1.80376
 30
0.0
 40
0
 41
0
  0
VERTEX
  8
0
 10
1.34207
 20
1.80339
 30
0.0
 40
0
 41
0
  0
VERTEX
  8
0
 10
1.34207
 20
1.64681
 30
0.0
 40
0
 41
0
  0
VERTEX
  8
0
 10
1.39497
 20
1.64681
 30
0.0
 40
0
 41
0
  0
SEQEND
 8
0
  0
POLYLINE
  8
0
 62
     7
 66
     1
 10
0
 20
0
 30
0.0
 70
     1
 40
0
 41
0
  0
VERTEX
  8
0
 10
1.92507
 20
1.23562
 30
0.0
 40
0
 41
0
  0
VERTEX
  8
0
 10
1.92507
 20
1.91803
 30
0.0
 40
0
 41
0
  0
VERTEX
  8
0
 10
2.33849
 20
1.91803
 30
0.0
 40
0
 41
0
  0
VERTEX
  8
0
 10
2.33849
 20
1.80556
 30
0.0
 40
0
 41
0
  0
VERTEX
  8
0
 10
2.06065
 20
1.80556
 30
0.0
 40
0
 41
0
  0
VERTEX
  8
0
 10
2.06065
 20
1.65235
 30
0.0
 40
0
 41
0
  0
VERTEX
  8
0
 10
2.30208
 20
1.65235
 30
0.0
 40
0
 41
0
  0
VERTEX
  8
0
 10
2.30208
 20
1.53988
 30
0.0
 40
0
 41
0
  0
VERTEX
  8
0
 10
2.06065
 20
1.53988
 30
0.0
 40
0
 41
0
  0
VERTEX
  8
0
 10
2.06065
 20
1.34809
 30
0.0
 40
0
 41
0
  0
VERTEX
  8
0
 10
2.36274
 20
1.34809
 30
0.0
 40
0
 41
0
  0
VERTEX
  8
0
 10
2.36274
 20
1.23562
 30
0.0
 40
0
 41
0
  0
VERTEX
  8
0
 10
1.92507
 20
1.23562
 30
0.0
 40
0
 41
0
  0
SEQEND
 8
0
  0
POLYLINE
  8
0
 62
     7
 66
     1
 10
0
 20
0
 30
0.0
 70
     1
 40
0
 41
0
  0
VERTEX
  8
0
 10
2.80024
 20
1.92572
 30
0.0
 40
0
 41
0
  0
VERTEX
  8
0
 10
2.82667
 20
1.92572
 30
0.0
 40
0
 41
0
  0
VERTEX
  8
0
 10
2.89817
 20
1.91471
 30
0.0
 40
0
 41
0
  0
VERTEX
  8
0
 10
2.90608
 20
1.91249
 30
0.0
 40
0
 41
0
  0
VERTEX
  8
0
 10
2.91396
 20
1.91032
 30
0.0
 40
0
 41
0
  0
VERTEX
  8
0
 10
2.98193
 20
1.87636
 30
0.0
 40
0
 41
0
  0
VERTEX
  8
0
 10
2.98762
 20
1.87175
 30
0.0
 40
0
 41
0
  0
VERTEX
  8
0
 10
2.99333
 20
1.86719
 30
0.0
 40
0
 41
0
  0
VERTEX
  8
0
 10
3.01768
 20
1.84033
 30
0.0
 40
0
 41
0
  0
VERTEX
  8
0
 10
3.03651
 20
1.80832
 30
0.0
 40
0
 41
0
  0
VERTEX
  8
0
 10
3.03944
 20
1.80117
 30
0.0
 40
0
 41
0
  0
VERTEX
  8
0
 10
3.04254
 20
1.79422
 30
0.0
 40
0
 41
0
  0
VERTEX
  8
0
 10
3.0535
 20
1.75543
 30
0.0
 40
0
 41
0
  0
VERTEX
  8
0
 10
3.05821
 20
1.71533
 30
0.0
 40
0
 41
0
  0
VERTEX
  8
0
 10
3.05821
 20
1.70193
 30
0.0
 40
0
 41
0
  0
VERTEX
  8
0
 10
3.05821
 20
1.68778
 30
0.0
 40
0
 41
0
  0
VERTEX
  8
0
 10
3.05214
 20
1.64518
 30
0.0
 40
0
 41
0
  0
VERTEX
  8
0
 10
3.03797
 20
1.602
 30
0.0
 40
0
 41
0
  0
VERTEX
  8
0
 10
3.03396
 20
1.59392
 30
0.0
 40
0
 41
0
  0
VERTEX
  8
0
 10
3.02989
 20
1.58583
 30
0.0
 40
0
 41
0
  0
VERTEX
  8
0
 10
3.00168
 20
1.55122
 30
0.0
 40
0
 41
0
  0
VERTEX
  8
0
 10
2.96278
 20
1.52431
 30
0.0
 40
0
 41
0
  0
VERTEX
  8
0
 10
2.95344
 20
1.52007
 30
0.0
 40
0
 41
0
  0
VERTEX
  8
0
 10
2.95654
 20
1.51531
 30
0.0
 40
0
 41
0
  0
VERTEX
  8
0
 10
2.98964
 20
1.46203
 30
0.0
 40
0
 41
0
  0
VERTEX
  8
0
 10
2.99317
 20
1.45611
 30
0.0
 40
0
 41
0
  0
VERTEX
  8
0
 10
2.99664
 20
1.45042
 30
0.0
 40
0
 41
0
  0
VERTEX
  8
0
 10
3.03065
 20
1.38981
 30
0.0
 40
0
 41
0
  0
VERTEX
  8
0
 10
3.03396
 20
1.38336
 30
0.0
 40
0
 41
0
  0
VERTEX
  8
0
 10
3.03728
 20
1.37712
 30
0.0
 40
0
 41
0
  0
VERTEX
  8
0
 10
3.06847
 20
1.31375
 30
0.0
 40
0
 41
0
  0
VERTEX
  8
0
 10
3.07146
 20
1.30729
 30
0.0
 40
0
 41
0
  0
VERTEX
  8
0
 10
3.07454
 20
1.30105
 30
0.0
 40
0
 41
0
  0
VERTEX
  8
0
 10
3.10118
 20
1.24132
 30
0.0
 40
0
 41
0
  0
VERTEX
  8
0
 10
3.1034
 20
1.23562
 30
0.0
 40
0
 41
0
  0
VERTEX
  8
0
 10
2.96121
 20
1.23562
 30
0.0
 40
0
 41
0
  0
VERTEX
  8
0
 10
2.95697
 20
1.24669
 30
0.0
 40
0
 41
0
  0
VERTEX
  8
0
 10
2.90733
 20
1.35232
 30
0.0
 40
0
 41
0
  0
VERTEX
  8
0
 10
2.90164
 20
1.36241
 30
0.0
 40
0
 41
0
  0
VERTEX
  8
0
 10
2.89611
 20
1.37272
 30
0.0
 40
0
 41
0
  0
VERTEX
  8
0
 10
2.83643
 20
1.47651
 30
0.0
 40
0
 41
0
  0
VERTEX
  8
0
 10
2.83003
 20
1.48699
 30
0.0
 40
0
 41
0
  0
VERTEX
  8
0
 10
2.75944
 20
1.48699
 30
0.0
 40
0
 41
0
  0
VERTEX
  8
0
 10
2.75944
 20
1.23562
 30
0.0
 40
0
 41
0
  0
VERTEX
  8
0
 10
2.62386
 20
1.23562
 30
0.0
 40
0
 41
0
  0
VERTEX
  8
0
 10
2.62386
 20
1.9081
 30
0.0
 40
0
 41
0
  0
VERTEX
  8
0
 10
2.62717
 20
1.90886
 30
0.0
 40
0
 41
0
  0
VERTEX
  8
0
 10
2.66297
 20
1.91525
 30
0.0
 40
0
 41
0
  0
VERTEX
  8
0
 10
2.66683
 20
1.91581
 30
0.0
 40
0
 41
0
  0
VERTEX
  8
0
 10
2.67085
 20
1.91656
 30
0.0
 40
0
 41
0
  0
VERTEX
  8
0
 10
2.71126
 20
1.92117
 30
0.0
 40
0
 41
0
  0
VERTEX
  8
0
 10
2.71533
 20
1.92133
 30
0.0
 40
0
 41
0
  0
VERTEX
  8
0
 10
2.71935
 20
1.92171
 30
0.0
 40
0
 41
0
  0
VERTEX
  8
0
 10
2.75797
 20
1.92449
 30
0.0
 40
0
 41
0
  0
VERTEX
  8
0
 10
2.76167
 20
1.92464
 30
0.0
 40
0
 41
0
  0
VERTEX
  8
0
 10
2.76531
 20
1.92486
 30
0.0
 40
0
 41
0
  0
VERTEX
  8
0
 10
2.7915
 20
1.92572
 30
0.0
 40
0
 41
0
  0
VERTEX
  8
0
 10
2.80024
 20
1.92572
 30
0.0
 40
0
 41
0
  0
SEQEND
 8
0
  0
POLYLINE
  8
0
 62
     7
 66
     1
 10
0
 20
0
 30
0.0
 70
     1
 40
0
 41
0
  0
VERTEX
  8
0
 10
2.92042
 20
1.70307
 30
0.0
 40
0
 41
0
  0
VERTEX
  8
0
 10
2.92042
 20
1.71479
 30
0.0
 40
0
 41
0
  0
VERTEX
  8
0
 10
2.91211
 20
1.74994
 30
0.0
 40
0
 41
0
  0
VERTEX
  8
0
 10
2.89279
 20
1.77821
 30
0.0
 40
0
 41
0
  0
VERTEX
  8
0
 10
2.88732
 20
1.78244
 30
0.0
 40
0
 41
0
  0
VERTEX
  8
0
 10
2.88178
 20
1.78668
 30
0.0
 40
0
 41
0
  0
VERTEX
  8
0
 10
2.84901
 20
1.80149
 30
0.0
 40
0
 41
0
  0
VERTEX
  8
0
 10
2.81239
 20
1.80778
 30
0.0
 40
0
 41
0
  0
VERTEX
  8
0
 10
2.80024
 20
1.80778
 30
0.0
 40
0
 41
0
  0
VERTEX
  8
0
 10
2.79551
 20
1.80778
 30
0.0
 40
0
 41
0
  0
VERTEX
  8
0
 10
2.78331
 20
1.80692
 30
0.0
 40
0
 41
0
  0
VERTEX
  8
0
 10
2.78147
 20
1.80669
 30
0.0
 40
0
 41
0
  0
VERTEX
  8
0
 10
2.77593
 20
1.80669
 30
0.0
 40
0
 41
0
  0
VERTEX
  8
0
 10
2.76129
 20
1.80485
 30
0.0
 40
0
 41
0
  0
VERTEX
  8
0
 10
2.75944
 20
1.80447
 30
0.0
 40
0
 41
0
  0
VERTEX
  8
0
 10
2.75944
 20
1.59944
 30
0.0
 40
0
 41
0
  0
VERTEX
  8
0
 10
2.78922
 20
1.59944
 30
0.0
 40
0
 41
0
  0
VERTEX
  8
0
 10
2.80414
 20
1.59944
 30
0.0
 40
0
 41
0
  0
VERTEX
  8
0
 10
2.84901
 20
1.60607
 30
0.0
 40
0
 41
0
  0
VERTEX
  8
0
 10
2.88439
 20
1.62147
 30
0.0
 40
0
 41
0
  0
VERTEX
  8
0
 10
2.88954
 20
1.62588
 30
0.0
 40
0
 41
0
  0
VERTEX
  8
0
 10
2.89464
 20
1.63049
 30
0.0
 40
0
 41
0
  0
VERTEX
  8
0
 10
2.91265
 20
1.65896
 30
0.0
 40
0
 41
0
  0
VERTEX
  8
0
 10
2.92042
 20
1.69206
 30
0.0
 40
0
 41
0
  0
VERTEX
  8
0
 10
2.92042
 20
1.70307
 30
0.0
 40
0
 41
0
  0
SEQEND
 8
0
  0
POLYLINE
  8
0
 62
     140
 66
     1
 10
0
 20
0
 30
0.0
 40
1.6
 41
1.6
  0
VERTEX
  8
0
 10
0.410807
 20
0.408529
 30
0.0
 40
0.0222222
 41
0.0222222
  0
VERTEX
  8
0
 10
3.17996
 20
0.408529
 30
0.0
 40
0.0222222
 41
0.0222222
  0
SEQEND
 8
0
  0
ENDSEC
  0
EOF
